<svg width="1080" height="720" viewBox="0 0 1080 720" fill="none" xmlns="http://www.w3.org/2000/svg">
  <rect width="1080" height="720" rx="26" fill="#F4FAF5"/>
  <rect x="48" y="54" width="984" height="612" rx="22" fill="#FFFFFF" stroke="#DCE7DF" stroke-width="2"/>
  <rect x="88" y="104" width="190" height="34" rx="10" fill="#E8F6EC"/>
  <rect x="88" y="170" width="320" height="320" rx="16" fill="#F7FBF8" stroke="#E1ECE4"/>
  <rect x="442" y="170" width="550" height="150" rx="16" fill="#F7FBF8" stroke="#E1ECE4"/>
  <rect x="442" y="340" width="262" height="150" rx="16" fill="#F7FBF8" stroke="#E1ECE4"/>
  <rect x="730" y="340" width="262" height="150" rx="16" fill="#F7FBF8" stroke="#E1ECE4"/>
  <path d="M120 430L180 360L240 386L320 288L388 310" stroke="#11643B" stroke-width="10" stroke-linecap="round" stroke-linejoin="round"/>
  <circle cx="180" cy="360" r="10" fill="#11643B"/>
  <circle cx="240" cy="386" r="10" fill="#11643B"/>
  <circle cx="320" cy="288" r="10" fill="#11643B"/>
  <circle cx="388" cy="310" r="10" fill="#11643B"/>
  <path d="M478 278L568 222L650 248L734 194L816 212L936 166" stroke="#F1B53D" stroke-width="9" stroke-linecap="round" stroke-linejoin="round"/>
  <circle cx="568" cy="222" r="8" fill="#F1B53D"/>
  <circle cx="650" cy="248" r="8" fill="#F1B53D"/>
  <circle cx="734" cy="194" r="8" fill="#F1B53D"/>
  <circle cx="816" cy="212" r="8" fill="#F1B53D"/>
  <rect x="474" y="366" width="66" height="94" rx="8" fill="#11643B"/>
  <rect x="560" y="394" width="66" height="66" rx="8" fill="#2D8559"/>
  <rect x="646" y="346" width="66" height="114" rx="8" fill="#45A16E"/>
  <rect x="760" y="420" width="56" height="40" rx="8" fill="#D6E7DD"/>
  <rect x="830" y="380" width="56" height="80" rx="8" fill="#BFD8C9"/>
  <rect x="900" y="344" width="56" height="116" rx="8" fill="#93BBA4"/>
</svg>
